<?xml version="1.0" encoding="UTF-8"?>
<svg width="185px" height="185px" viewBox="0 0 185 185" version="1.1" xmlns="http://www.w3.org/2000/svg" xmlns:xlink="http://www.w3.org/1999/xlink">
    <title>Headshot-Pleaceholder-185px</title>
    <g id="9.-Misc" stroke="none" stroke-width="1" fill="none" fill-rule="evenodd">
        <g id="Headshot-Pleaceholder-185px">
            <circle id="Oval" fill="#CCE5EC" cx="92.5" cy="92.5" r="92.5"></circle>
            <g id="Logo" transform="translate(25.813953, 74.573643)" fill="#FFFFFF" fill-rule="nonzero">
                <polygon id="/" points="0 38.7209302 10.9942486 0 13.7984496 0 2.73743436 38.7209302"></polygon>
                <path d="M46.6532088,34.4295124 L46.6532088,19.0262207 C46.6532088,16.5018446 46.3227328,14.7761011 45.6617709,13.8489383 C45.000809,12.9217755 43.8516538,12.458201 42.2142709,12.458201 C40.2614289,12.458201 38.7442437,13.08539 37.6626696,14.3397867 C36.5810956,15.5941835 36.0403167,17.3588829 36.0403167,19.6339378 L36.0403167,34.4295124 L31.9168364,34.4295124 L31.9168364,19.0262207 C31.9168364,16.5018446 31.5863604,14.7761011 30.9253985,13.8489383 C30.2644366,12.9217755 29.1227922,12.458201 27.5004312,12.458201 C25.5626111,12.458201 24.0454258,13.0931812 22.9488299,14.3631605 C21.852234,15.6331398 21.3039443,17.390048 21.3039443,19.6339378 L21.3039443,34.4295124 L17.248062,34.4295124 L17.248062,9.39624167 L21.1236829,9.39624167 L21.1236829,12.9256757 C22.0249946,11.5232446 23.0915307,10.4792282 24.3233234,9.79359518 C25.555116,9.10796217 26.9971931,8.76515081 28.6495978,8.76515081 C30.151784,8.76515081 31.4361339,9.08069309 32.502686,9.7117871 C33.5692382,10.3428811 34.485558,11.3362549 35.2516729,12.6919384 C36.3032032,11.3362549 37.4523584,10.3428811 38.6991729,9.7117871 C39.9459874,9.08069309 41.3805537,8.76515081 43.0029147,8.76515081 C44.5651883,8.76515081 45.9246463,9.05731959 47.0813297,9.64166589 C48.238013,10.2260122 49.1242895,11.0713539 49.7401859,12.1777162 C50.0856887,12.8166015 50.3335457,13.5801359 50.4837643,14.4683423 C50.6339829,15.3565487 50.7090911,16.7589588 50.7090911,18.6756147 L50.7090911,34.4295124 L46.6532088,34.4295124 Z M71.7546137,31.0870682 C70.4927774,32.4583342 69.1520964,33.4867683 67.7325304,34.1724013 C66.3129645,34.8580343 64.8070455,35.2008457 63.2147282,35.2008457 C60.7511429,35.2008457 58.8283735,34.5347009 57.4463623,33.2023913 C56.064351,31.8700817 55.3733557,30.0274706 55.3733557,27.6745028 C55.3733557,25.3994479 56.0530848,23.6152706 57.4125632,22.3219174 C58.7720417,21.0285642 60.8412721,20.1949093 63.6203164,19.8209277 L67.2163941,19.4122523 C68.8429764,19.2230708 69.8599889,19.0398563 70.2674569,18.8626046 C70.7331346,18.6756137 71.0410781,18.430192 71.1912968,18.1263319 C71.3415154,17.8224718 71.4166235,17.1641182 71.4166235,16.1512512 C71.4166235,14.8734806 70.9659745,13.9151671 70.0646628,13.2762818 C69.1633511,12.6373965 67.803893,12.3179586 65.9862478,12.3179586 C64.1085151,12.3179586 62.6927259,12.707517 61.7388377,13.4866454 C60.7849495,14.2657738 60.3080126,15.4188666 60.3080126,16.9459582 L56.477457,16.9459582 L56.477457,16.7589684 C56.477457,14.2345923 57.3336903,12.2400535 59.0461825,10.7752921 C60.7586747,9.31053065 63.1170716,8.57816093 66.1214439,8.57816093 C69.3511441,8.57816093 71.728318,9.20534989 73.2530369,10.4597466 C74.7777559,11.7141434 75.5401039,13.6736219 75.5401039,16.3382411 L75.5401039,28.8665633 C75.5401039,29.9417606 75.6527662,30.6351744 75.8780941,30.9468258 C76.103422,31.2584772 76.5090062,31.4143005 77.0948588,31.4143005 C77.2150337,31.4143005 77.3614946,31.4026138 77.534246,31.3792399 L77.9248121,31.31691 C77.9974173,31.3039246 78.0737781,31.2896407 78.1538947,31.2740581 L78.1538947,34.5230073 C77.6581733,34.6632505 77.2263013,34.76064 76.8582656,34.815179 C76.49023,34.869718 76.140977,34.8969871 75.8104961,34.8969871 C74.4585285,34.8969871 73.4445681,34.5931316 72.7685843,33.9854114 C72.0926006,33.3776913 71.7546137,32.4583335 71.7546137,31.2273106 L71.7546137,31.0870682 Z M71.3715582,21.6908265 C70.3575825,22.2605642 68.6636867,22.7138828 66.2898249,23.0507942 L64.8564437,23.2470062 C64.3834929,23.3139621 64.0014957,23.3717874 63.7104472,23.420483 C62.2383047,23.6698041 61.1792794,24.1216918 60.5333393,24.7761596 C59.8873993,25.4306275 59.5644341,26.3811499 59.5644341,27.6277554 C59.5644341,28.8743608 59.939975,29.8326744 60.6910681,30.5027248 C61.4421612,31.1727753 62.5162082,31.5077955 63.9132413,31.5077955 C66.0914112,31.5077955 67.8789859,30.9390402 69.276019,29.8015128 C70.6730521,28.6639853 71.3715582,27.207037 71.3715582,25.4306242 L71.3715582,21.6908265 Z M81.8943195,34.4295124 L81.8943195,0 L85.9502018,0 L85.9502018,20.6390084 L96.8560187,9.39624167 L101.970937,9.39624167 L92.9353325,18.5353723 L101.835741,34.4295124 L97.2616069,34.4295124 L90.2088783,21.4570892 L85.9502018,25.7111091 L85.9502018,34.4295124 L81.8943195,34.4295124 Z M108.663143,21.8778164 C108.663143,24.9787475 109.305318,27.3511579 110.589687,28.9951189 C111.874056,30.6390798 113.710451,31.461048 116.098927,31.461048 C118.472381,31.461048 120.289999,30.6390798 121.551835,28.9951189 C122.813672,27.3511579 123.444581,24.9787475 123.444581,21.8778164 C123.444581,18.7924679 122.813672,16.4278487 121.551835,14.7838877 C120.289999,13.1399268 118.472381,12.3179586 116.098927,12.3179586 C113.695429,12.3179586 111.855279,13.1360312 110.578421,14.7722008 C109.301562,16.4083705 108.663143,18.7768853 108.663143,21.8778164 Z M104.51713,21.8778164 C104.51713,17.6861056 105.527335,14.4216065 107.547775,12.0842213 C109.568215,9.74683602 112.403549,8.57816093 116.053862,8.57816093 C119.719196,8.57816093 122.565796,9.74294043 124.593747,12.0725344 C126.621698,14.4021283 127.635659,17.670523 127.635659,21.8778164 C127.635659,26.0851099 126.625454,29.3574001 124.605014,31.6947853 C122.584573,34.0321706 119.749239,35.2008457 116.098927,35.2008457 C112.433593,35.2008457 109.586993,34.0360662 107.559041,31.7064722 C105.53109,29.3768783 104.51713,26.1006924 104.51713,21.8778164 Z" id="mako"></path>
            </g>
        </g>
    </g>
</svg>